<?xml version="1.0" encoding="UTF-8" standalone="no"?>
<svg
   xmlns:dc="http://purl.org/dc/elements/1.1/"
   xmlns:cc="http://creativecommons.org/ns#"
   xmlns:rdf="http://www.w3.org/1999/02/22-rdf-syntax-ns#"
   xmlns:svg="http://www.w3.org/2000/svg"
   xmlns="http://www.w3.org/2000/svg"
   xmlns:sodipodi="http://sodipodi.sourceforge.net/DTD/sodipodi-0.dtd"
   xmlns:inkscape="http://www.inkscape.org/namespaces/inkscape"
   viewBox="0 0 5406.25 3175"
   height="3175"
   width="5406.25"
   xml:space="preserve"
   version="1.1"
   id="svg4196"
   inkscape:version="0.91 r13725"
   sodipodi:docname="bike_jig_08a2.svg"><sodipodi:namedview
     pagecolor="#ffffff"
     bordercolor="#666666"
     borderopacity="1"
     objecttolerance="10"
     gridtolerance="10"
     guidetolerance="10"
     inkscape:pageopacity="0"
     inkscape:pageshadow="2"
     inkscape:window-width="1366"
     inkscape:window-height="719"
     id="namedview4161"
     showgrid="false"
     inkscape:zoom="0.20534708"
     inkscape:cx="3032.2125"
     inkscape:cy="1769.1915"
     inkscape:window-x="0"
     inkscape:window-y="25"
     inkscape:window-maximized="1"
     inkscape:current-layer="svg4196" /><metadata
     id="metadata4202"><rdf:RDF><cc:Work
         rdf:about=""><dc:format>image/svg+xml</dc:format><dc:type
           rdf:resource="http://purl.org/dc/dcmitype/StillImage" /><dc:title></dc:title></cc:Work></rdf:RDF></metadata><defs
     id="defs4200" /><path
     inkscape:connector-curvature="0"
     d="m 3842.29,2298.2525 -283.4638,0 0,-496.4175 63.7788,0 2.8425,-0.3738 2.65,-1.0974 2.275,-1.7463 1.745,-2.275 1.0975,-2.6487 0.375,-2.8425 -0.375,-2.8438 -1.0975,-2.6487 -1.745,-2.275 -2.275,-1.745 -2.65,-1.0975 -2.8425,-0.375 0,-97.0863 2.8425,-0.3737 2.65,-1.0975 2.275,-1.7463 1.745,-2.275 1.0975,-2.6487 0.375,-2.8425 -0.375,-2.8438 -1.0975,-2.6487 -1.745,-2.275 -2.275,-1.745 -2.65,-1.0975 -2.8425,-0.375 -63.7788,0 0,-248.385 283.4638,0 0,248.385 -63.7788,0 -2.8437,0.375 -2.6488,1.0975 -2.275,1.745 -1.7462,2.275 -1.0963,2.6487 -0.375,2.8438 0.375,2.8425 1.0963,2.6487 1.7462,2.275 2.275,1.7463 2.6488,1.0975 2.8437,0.3737 0,97.0863 -2.8437,0.375 -2.6488,1.0975 -2.275,1.745 -1.7462,2.275 -1.0963,2.6487 -0.375,2.8438 0.375,2.8425 1.0963,2.6487 1.7462,2.275 2.275,1.7463 2.6488,1.0974 2.8437,0.3738 63.7788,0 0,496.4175 z m -65.5512,-824.1662 -2.5638,-1.0625 -2.7512,-0.3613 -2.7513,0.3613 -2.5637,1.0625 -2.2013,1.6887 -1.6887,2.2025 -1.0625,2.5625 -0.3625,2.7525 0.3625,2.75 1.0625,2.5638 1.6887,2.2025 2.2013,1.6887 2.5637,1.0625 2.7513,0.3612 2.7512,-0.3612 2.5638,-1.0625 2.2012,-1.6887 1.69,-2.2025 1.0625,-2.5638 0.3613,-2.75 -0.3613,-2.7525 -1.0625,-2.5625 -1.69,-2.2025 -2.2012,-1.6887 z m -149.7988,743.0325 -2.5637,1.0612 -2.2013,1.69 -1.6887,2.2013 -1.0625,2.5637 -0.3613,2.7513 0.3613,2.7512 1.0625,2.5638 1.6887,2.2012 2.2013,1.69 2.5637,1.0613 2.7513,0.3625 2.7512,-0.3625 2.5638,-1.0613 2.2025,-1.69 1.6887,-2.2012 1.0625,-2.5638 0.3613,-2.7512 -0.3613,-2.7513 -1.0625,-2.5637 -1.6887,-2.2013 -2.2025,-1.69 -2.5638,-1.0612 -2.7512,-0.3625 -2.7513,0.3625 z m 154.7525,7.5162 -1.0625,-2.5637 -1.69,-2.2013 -2.2012,-1.69 -2.5638,-1.0612 -2.7512,-0.3625 -2.7513,0.3625 -2.5637,1.0612 -2.2013,1.69 -1.6887,2.2013 -1.0625,2.5637 -0.3625,2.7513 0.3625,2.7512 1.0625,2.5638 1.6887,2.2012 2.2013,1.69 2.5637,1.0613 2.7513,0.3625 2.7512,-0.3625 2.5638,-1.0613 2.2012,-1.69 1.69,-2.2012 1.0625,-2.5638 0.3613,-2.7512 -0.3613,-2.7513 z m -85.4912,-136.8975 4.3562,0.5737 4.3563,-0.5737 4.06,-1.6812 3.485,-2.6738 2.675,-3.4863 1.6812,-4.0587 0.5738,-4.3563 -0.355,-106.2999 -0.5676,-4.31 -1.6637,-4.0163 -2.6463,-3.4487 -3.4487,-2.6475 -4.0163,-1.6638 -4.31,-0.5675 -4.3112,0.5675 -4.0163,1.6638 -3.4487,2.6475 -2.6463,3.4487 -1.6637,4.0163 -0.5675,4.31 0,106.2999 0.5737,4.3563 1.6813,4.0587 2.675,3.4863 3.485,2.6738 4.0587,1.6812 z m -57.3038,-609.76 -1.6887,-2.2025 -2.2025,-1.6887 -2.5638,-1.0625 -2.7512,-0.3613 -2.7513,0.3613 -2.5637,1.0625 -2.2013,1.6887 -1.6887,2.2025 -1.0625,2.5625 -0.3613,2.7525 0.3613,2.75 1.0625,2.5638 1.6887,2.2025 2.2013,1.6887 2.5637,1.0625 2.7513,0.3612 2.7512,-0.3612 2.5638,-1.0625 2.2025,-1.6887 1.6887,-2.2025 1.0625,-2.5638 0.3613,-2.75 -0.3613,-2.7525 -1.0625,-2.5625 z"
     style="fill:#ff0000;fill-opacity:1;fill-rule:nonzero;stroke:none"
     id="path4206" /><path
     inkscape:connector-curvature="0"
     d="m 3608.255,1286.6387 -49.4288,0 0,-751.1812 70.865,0 0,63.95625 0.375,2.8425 1.0976,2.65 1.745,2.275 2.275,1.745 2.65,1.0975 2.8425,0.37375 2.8425,-0.37375 2.6487,-1.0975 2.2763,-1.745 1.745,-2.275 1.0975,-2.65 0.3737,-2.8425 97.0875,0 0.3863,2.935 1.1325,2.735 1.8012,2.3475 2.3488,1.8025 2.735,1.1325 2.9337,0.38625 2.935,-0.38625 2.735,-1.1325 2.3475,-1.8025 1.8025,-2.3475 1.1325,-2.735 0.3863,-2.935 0,-63.95625 70.8662,0 0,751.1813 -49.4287,0 -0.375,-2.8438 -1.0963,-2.6487 -1.7462,-2.275 -2.275,-1.745 -2.6488,-1.0975 -2.8437,-0.375 -2.8425,0.375 -2.6488,1.0975 -2.275,1.745 -1.7462,2.275 -1.0975,2.6487 -0.3738,2.8438 0,62.0075 -140.6687,0 0,-62.0075 -0.375,-2.8438 -1.0975,-2.6487 -1.745,-2.275 -2.2751,-1.745 -2.6487,-1.0975 -2.8438,-0.375 -2.8425,0.375 -2.6487,1.0975 -2.275,1.745 -1.7463,2.275 -1.0975,2.6487 -0.3737,2.8438 z m 21.0825,-531.6737 0,64.13375 0.375,2.8425 1.0963,2.65 1.7462,2.275 2.275,1.745 2.6488,1.0975 2.8425,0.375 2.8437,-0.375 2.6488,-1.0975 2.275,-1.745 1.745,-2.275 1.0975,-2.65 0.375,-2.8425 98.5037,0 0.3738,2.8425 1.0975,2.65 1.7462,2.275 2.275,1.745 2.6488,1.0975 2.8425,0.375 2.8425,-0.375 2.65,-1.0975 2.275,-1.745 1.745,-2.275 1.0975,-2.65 0.375,-2.8425 0,-64.13375 -0.375,-2.8425 -1.0975,-2.65 -1.745,-2.27375 -2.275,-1.74625 -2.65,-1.0975 -2.8425,-0.37375 -2.8425,0.37375 -2.6488,1.0975 -2.275,1.74625 -1.7462,2.27375 -1.0975,2.65 -0.3738,2.8425 -98.5037,0 -0.375,-2.8425 -1.0975,-2.65 -1.745,-2.27375 -2.275,-1.74625 -2.6488,-1.0975 -2.8437,-0.37375 -2.8425,0.37375 -2.6488,1.0975 -2.275,1.74625 -1.7462,2.27375 -1.0963,2.65 -0.375,2.8425 z"
     style="fill:#ff0000;fill-opacity:1;fill-rule:nonzero;stroke:none"
     id="path4208" /><path
     inkscape:connector-curvature="0"
     d="m 3261.0113,1286.6387 -49.43,0 0,-751.1812 70.8662,0 0,63.95625 0.375,2.8425 1.0963,2.65 1.7462,2.275 2.275,1.745 2.6488,1.0975 2.8437,0.37375 2.8425,-0.37375 2.6488,-1.0975 2.275,-1.745 1.745,-2.275 1.0987,-2.65 0.3738,-2.8425 97.0862,0 0.3863,2.935 1.1325,2.735 1.8025,2.3475 2.3487,1.8025 2.7338,1.1325 2.935,0.38625 2.935,-0.38625 2.735,-1.1325 2.3475,-1.8025 1.8025,-2.3475 1.1325,-2.735 0.3862,-2.935 0,-63.95625 70.8663,0 0,751.1813 -49.4288,0 -0.375,-2.8438 -1.0975,-2.6487 -1.745,-2.275 -2.275,-1.745 -2.65,-1.0975 -2.8425,-0.375 -2.8425,0.375 -2.65,1.0975 -2.2737,1.745 -1.7463,2.275 -1.0975,2.6487 -0.3737,2.8438 0,62.0075 -140.67,0 0,-62.0075 -0.3738,-2.8438 -1.0975,-2.6487 -1.745,-2.275 -2.275,-1.745 -2.65,-1.0975 -2.8425,-0.375 -2.8425,0.375 -2.65,1.0975 -2.275,1.745 -1.745,2.275 -1.0975,2.6487 -0.3737,2.8438 z m 21.0825,-531.6737 0,64.13375 0.3737,2.8425 1.0975,2.65 1.7463,2.275 2.2737,1.745 2.65,1.0975 2.8425,0.375 2.8425,-0.375 2.65,-1.0975 2.275,-1.745 1.745,-2.275 1.0975,-2.65 0.375,-2.8425 98.5025,0 0.375,2.8425 1.0975,2.65 1.745,2.275 2.275,1.745 2.6488,1.0975 2.8437,0.375 2.8438,-0.375 2.6487,-1.0975 2.275,-1.745 1.745,-2.275 1.0975,-2.65 0.3738,-2.8425 0,-64.13375 -0.3738,-2.8425 -1.0975,-2.65 -1.745,-2.27375 -2.275,-1.74625 -2.6487,-1.0975 -2.8438,-0.37375 -2.8437,0.37375 -2.6488,1.0975 -2.275,1.74625 -1.745,2.27375 -1.0975,2.65 -0.375,2.8425 -98.5025,0 -0.375,-2.8425 -1.0975,-2.65 -1.745,-2.27375 -2.275,-1.74625 -2.65,-1.0975 -2.8425,-0.37375 -2.8425,0.37375 -2.65,1.0975 -2.2737,1.74625 -1.7463,2.27375 -1.0975,2.65 -0.3737,2.8425 z"
     style="fill:#ff0000;fill-opacity:1;fill-rule:nonzero;stroke:none"
     id="path4210" /><path
     inkscape:connector-curvature="0"
     d="m 3147.8025,1717.3275 0,222.8738 -48.8975,0 -0.375,-2.8425 -1.0975,-2.65 -1.745,-2.275 -2.275,-1.745 -2.65,-1.0975 -2.8425,-0.3738 -2.8425,0.3738 -2.65,1.0975 -2.2737,1.745 -1.7463,2.275 -1.0975,2.65 -0.3738,2.8425 0,63.9562 -141.7324,0 0,-63.9562 -0.3738,-2.8425 -1.0975,-2.65 -1.7462,-2.275 -2.2751,-1.745 -2.6487,-1.0975 -2.8438,-0.3738 -2.8425,0.3738 -2.6487,1.0975 -2.275,1.745 -1.7463,2.275 -1.0975,2.65 -0.3737,2.8425 -48.8975,0 0,-222.8738 41.8112,0 0.3738,2.8425 1.0975,2.6488 1.7462,2.2749 2.2738,1.7463 2.65,1.0975 2.8425,0.3737 2.8425,-0.3737 2.65,-1.0975 2.275,-1.7463 1.745,-2.2749 1.0975,-2.6488 0.375,-2.8425 0,-71.2212 -0.375,-2.8425 -1.0975,-2.6488 -1.745,-2.275 -2.275,-1.7462 -2.65,-1.0975 -2.8425,-0.3738 -2.8425,0.3738 -2.65,1.0975 -2.2738,1.7462 -1.7462,2.275 -1.0975,2.6488 -0.3738,2.8425 -41.8112,0 0,-141.3776 41.8112,0 0.3738,2.8425 1.0975,2.65 1.7462,2.275 2.2738,1.745 2.65,1.0975 2.8425,0.3738 2.8425,-0.3738 2.65,-1.0975 2.275,-1.745 1.745,-2.275 1.0975,-2.65 0.375,-2.8425 0,-71.0437 155.905,0 0,71.0437 0.375,2.8425 1.0963,2.65 1.7462,2.275 2.275,1.745 2.6488,1.0975 2.8425,0.3738 2.8437,-0.3738 2.6488,-1.0975 2.275,-1.745 1.745,-2.275 1.0975,-2.65 0.375,-2.8425 41.8112,0 0,141.3776 -41.8112,0 -0.375,-2.8425 -1.0975,-2.6488 -1.745,-2.275 -2.275,-1.7462 -2.6488,-1.0975 -2.8437,-0.3738 -2.8425,0.3738 -2.6488,1.0975 -2.275,1.7462 -1.7462,2.275 -1.0963,2.6488 -0.375,2.8425 0,71.2212 0.375,2.8425 1.0963,2.6488 1.7462,2.2749 2.275,1.7463 2.6488,1.0975 2.8425,0.3737 2.8437,-0.3737 2.6488,-1.0975 2.275,-1.7463 1.745,-2.2749 1.0975,-2.6488 0.375,-2.8425 41.8112,0 z m -157.99,96.305 1.6813,4.0588 2.6749,3.4862 3.4863,2.675 4.0587,1.6813 4.3563,0.5725 4.3563,-0.5725 4.0587,-1.6813 3.4863,-2.675 2.675,-3.4862 1.6812,-4.0588 0.5725,-4.3562 -0.5725,-4.3563 -1.6812,-4.0587 -2.675,-3.4863 -3.4863,-2.675 -4.0587,-1.6812 -4.3563,-0.5738 -4.3563,0.5738 -4.0587,1.6812 -3.4863,2.675 -2.6749,3.4863 -1.6813,4.0587 -0.5737,4.3563 0.5737,4.3562 z m 20.6138,85.6863 -4.3563,-0.5738 -4.3563,0.5738 -4.0587,1.6812 -3.4863,2.6738 -2.6749,3.4862 -1.6813,4.0588 -0.5737,4.3562 0.5737,4.3563 1.6813,4.06 2.6749,3.485 3.4863,2.675 4.0587,1.6812 4.3563,0.5738 4.3563,-0.5738 4.0587,-1.6812 3.4863,-2.675 2.675,-3.485 1.6812,-4.06 0.5725,-4.3563 -0.5725,-4.3562 -1.6812,-4.0588 -2.675,-3.4862 -3.4863,-2.6738 -4.0587,-1.6812 z"
     style="fill:#ff0000;fill-opacity:1;fill-rule:nonzero;stroke:none"
     id="path4212" /><path
     inkscape:connector-curvature="0"
     d="m 3495.0462,1717.3275 0,222.8738 -48.8975,0 -0.375,-2.8425 -1.0962,-2.65 -1.7463,-2.275 -2.275,-1.745 -2.6487,-1.0975 -2.8438,-0.3738 -2.8425,0.3738 -2.6487,1.0975 -2.275,1.745 -1.7463,2.275 -1.0975,2.65 -0.3737,2.8425 0,63.9562 -141.7325,0 0,-63.9562 -0.3738,-2.8425 -1.0975,-2.65 -1.7462,-2.275 -2.275,-1.745 -2.6488,-1.0975 -2.8425,-0.3738 -2.8437,0.3738 -2.6488,1.0975 -2.275,1.745 -1.745,2.275 -1.0975,2.65 -0.375,2.8425 -48.8975,0 0,-222.8738 41.8113,0 0.3737,2.8425 1.0975,2.6488 1.7463,2.2749 2.275,1.7463 2.6487,1.0975 2.8425,0.3737 2.8438,-0.3737 2.6487,-1.0975 2.275,-1.7463 1.7463,-2.2749 1.0962,-2.6488 0.375,-2.8425 0,-71.2212 -0.375,-2.8425 -1.0962,-2.6488 -1.7463,-2.275 -2.275,-1.7462 -2.6487,-1.0975 -2.8438,-0.3738 -2.8425,0.3738 -2.6487,1.0975 -2.275,1.7462 -1.7463,2.275 -1.0975,2.6488 -0.3737,2.8425 -41.8113,0 0,-141.3776 41.8113,0 0.3737,2.8425 1.0975,2.65 1.7463,2.275 2.275,1.745 2.6487,1.0975 2.8425,0.3738 2.8438,-0.3738 2.6487,-1.0975 2.275,-1.745 1.7463,-2.275 1.0962,-2.65 0.375,-2.8425 0,-71.0437 155.905,0 0,71.0437 0.3738,2.8425 1.0987,2.65 1.745,2.275 2.275,1.745 2.6488,1.0975 2.8437,0.3738 2.8425,-0.3738 2.6488,-1.0975 2.275,-1.745 1.7462,-2.275 1.0976,-2.65 0.3737,-2.8425 41.8112,0 0,141.3776 -41.8112,0 -0.3737,-2.8425 -1.0976,-2.6488 -1.7462,-2.275 -2.275,-1.7462 -2.6488,-1.0975 -2.8425,-0.3738 -2.8437,0.3738 -2.6488,1.0975 -2.275,1.7462 -1.745,2.275 -1.0987,2.6488 -0.3738,2.8425 0,71.2212 0.3738,2.8425 1.0987,2.6488 1.745,2.2749 2.275,1.7463 2.6488,1.0975 2.8437,0.3737 2.8425,-0.3737 2.6488,-1.0975 2.275,-1.7463 1.7462,-2.2749 1.0976,-2.6488 0.3737,-2.8425 41.8112,0 z m -157.9899,96.305 1.6812,4.0588 2.675,3.4862 3.4862,2.675 4.0588,1.6813 4.3562,0.5725 4.3563,-0.5725 4.0587,-1.6813 3.4863,-2.675 2.675,-3.4862 1.6812,-4.0588 0.5725,-4.3562 -0.5725,-4.3563 -1.6812,-4.0587 -2.675,-3.4863 -3.4863,-2.675 -4.0587,-1.6812 -4.3563,-0.5738 -4.3562,0.5738 -4.0588,1.6812 -3.4862,2.675 -2.675,3.4863 -1.6812,4.0587 -0.5738,4.3563 0.5738,4.3562 z m 20.6137,85.6863 -4.3563,-0.5738 -4.3562,0.5738 -4.0588,1.6812 -3.4862,2.6738 -2.675,3.4862 -1.6812,4.0588 -0.5738,4.3562 0.5738,4.3563 1.6812,4.06 2.675,3.485 3.4862,2.675 4.0588,1.6812 4.3562,0.5738 4.3563,-0.5738 4.0587,-1.6812 3.4863,-2.675 2.675,-3.485 1.6812,-4.06 0.5725,-4.3563 -0.5725,-4.3562 -1.6812,-4.0588 -2.675,-3.4862 -3.4863,-2.6738 -4.0587,-1.6812 z"
     style="fill:#ff0000;fill-opacity:1;fill-rule:nonzero;stroke:none"
     id="path4214" /><path
     inkscape:connector-curvature="0"
     d="m 2035.2038,207.70125 70.8662,0 0,283.465 -70.8662,0 0,-63.9575 -0.3738,-2.8425 -1.0987,-2.64875 -1.745,-2.275 -2.275,-1.74625 -2.6488,-1.0975 -2.8437,-0.37375 -2.8425,0.37375 -2.6488,1.0975 -2.275,1.74625 -1.7462,2.275 -1.0963,2.64875 -0.375,2.8425 -97.795,0 -0.375,-2.8425 -1.0962,-2.64875 -1.7463,-2.275 -2.275,-1.74625 -2.6487,-1.0975 -2.8438,-0.37375 -2.8425,0.37375 -2.6487,1.0975 -2.275,1.74625 -1.7463,2.275 -1.0975,2.64875 -0.3737,2.8425 0,63.9575 -70.8663,0 0,-283.465 70.8663,0 0,63.95625 0.3737,2.84375 1.0975,2.64875 1.7463,2.275 2.275,1.74625 2.6487,1.09625 2.8425,0.375 2.8438,-0.375 2.6487,-1.09625 2.275,-1.74625 1.7463,-2.275 1.0962,-2.64875 0.375,-2.84375 97.795,0 0.375,2.84375 1.0963,2.64875 1.7462,2.275 2.275,1.74625 2.6488,1.09625 2.8425,0.375 2.8437,-0.375 2.6488,-1.09625 2.275,-1.74625 1.745,-2.275 1.0987,-2.64875 0.3738,-2.84375 0,-63.95625 z"
     style="fill:#ff0000;fill-opacity:1;fill-rule:nonzero;stroke:none"
     id="path4216" /><path
     inkscape:connector-curvature="0"
     d="m 2566.5225,1307.8975 -49.4287,0 0,-467.53875 41.81,0 0.375,2.8425 1.0974,2.65 1.7451,2.275 2.275,1.745 2.6487,1.0975 2.8438,0.37375 2.8425,-0.37375 2.65,-1.0975 2.275,-1.745 1.745,-2.275 1.0975,-2.65 0.3737,-2.8425 0,-71.575 -0.3737,-2.8425 -1.0975,-2.64875 -1.745,-2.27625 -2.275,-1.745 -2.65,-1.0975 -2.8425,-0.37375 -2.8438,0.37375 -2.6487,1.0975 -2.275,1.745 -1.7451,2.27625 -1.0974,2.64875 -0.375,2.8425 -41.81,0 0,-140.66875 41.81,0 0.375,2.84375 1.0974,2.64875 1.7451,2.275 2.275,1.745 2.6487,1.0975 2.8438,0.375 2.8425,-0.375 2.65,-1.0975 2.275,-1.745 1.745,-2.275 1.0975,-2.64875 0.3737,-2.84375 0,-71.3975 155.9063,0 0,71.3975 0.3737,2.8425 1.0975,2.64875 1.745,2.275 2.275,1.74625 2.65,1.0975 2.8425,0.37375 2.8425,-0.37375 2.65,-1.0975 2.275,-1.74625 1.745,-2.275 1.0975,-2.64875 0.375,-2.8425 41.81,0 0,140.66875 -41.8112,0.12 -0.375,-2.84375 -1.0975,-2.64875 -1.745,-2.275 -2.275,-1.745 -2.6488,-1.0975 -2.8437,-0.375 -2.8425,0.375 -2.6488,1.0975 -2.275,1.745 -1.7462,2.275 -1.0976,2.64875 -0.3737,2.84375 0,71.575 0.3737,2.8425 1.0976,2.64875 1.7462,2.275 2.275,1.74625 2.6488,1.09625 2.8425,0.375 2.8437,-0.375 2.6488,-1.09625 2.275,-1.74625 1.745,-2.275 1.0975,-2.64875 0.375,-2.8425 41.8112,-0.12 0,467.53875 -49.4287,0 -0.3738,-2.8425 -1.0975,-2.6487 -1.7462,-2.275 -2.275,-1.7463 -2.6488,-1.0962 -2.8425,-0.375 -2.8437,0.375 -2.6488,1.0962 -2.275,1.7463 -1.745,2.275 -1.0975,2.6487 -0.375,2.8425 0,62.0087 -140.6687,0 0,-62.0087 -0.375,-2.8425 -1.0976,-2.6487 -1.745,-2.275 -2.275,-1.7463 -2.6487,-1.0962 -2.8438,-0.375 -2.8425,0.375 -2.6487,1.0962 -2.275,1.7463 -1.7463,2.275 -1.0975,2.6487 -0.3737,2.8425 z"
     style="fill:#ff0000;fill-opacity:1;fill-rule:nonzero;stroke:none"
     id="path4218" /><path
     inkscape:connector-curvature="0"
     d="m 2241.07,491.16625 -71.2212,0 0,-283.465 71.2212,0 0,63.95625 0.3738,2.84375 1.0974,2.64875 1.7463,2.275 2.2737,1.74625 2.65,1.09625 2.8425,0.375 2.8438,-0.375 2.6487,-1.09625 2.275,-1.74625 1.745,-2.275 1.0975,-2.64875 0.375,-2.84375 97.0863,0 0.3737,2.84375 1.0975,2.64875 1.7463,2.275 2.275,1.74625 2.6487,1.09625 2.8425,0.375 2.8438,-0.375 2.6487,-1.09625 2.275,-1.74625 1.745,-2.275 1.0975,-2.64875 0.375,-2.84375 0,-63.95625 71.22,0 0,283.465 -71.22,0 0,-63.9575 -0.375,-2.8425 -1.0975,-2.64875 -1.745,-2.275 -2.275,-1.74625 -2.6487,-1.0975 -2.8438,-0.37375 -2.8425,0.37375 -2.6487,1.0975 -2.275,1.74625 -1.7463,2.275 -1.0975,2.64875 -0.3737,2.8425 -97.0863,0 -0.375,-2.8425 -1.0975,-2.64875 -1.745,-2.275 -2.275,-1.74625 -2.6487,-1.0975 -2.8438,-0.37375 -2.8425,0.37375 -2.65,1.0975 -2.2737,1.74625 -1.7463,2.275 -1.0974,2.64875 -0.3738,2.8425 0,63.9575 z m 79.1775,-174.07625 -8.6662,-1.14 -8.6663,1.14 -8.0763,3.345 -6.9337,5.32125 -5.3213,6.935 -3.3449,8.07625 -1.1413,8.66625 1.1413,8.66625 3.3449,8.07625 5.3213,6.935 6.9337,5.32 8.0763,3.345 8.6663,1.14125 8.6662,-1.14125 8.0763,-3.345 6.935,-5.32 5.3212,-6.935 3.345,-8.07625 1.1413,-8.66625 -1.1413,-8.66625 -3.345,-8.07625 -5.3212,-6.935 -6.935,-5.32125 -8.0763,-3.345 z"
     style="fill:#ff0000;fill-opacity:1;fill-rule:nonzero;stroke:none"
     id="path4220" /><path
     inkscape:connector-curvature="0"
     d="m 2913.7662,1307.8975 -49.4287,0 0,-467.53875 41.8112,0 0.3738,2.8425 1.0975,2.65 1.7463,2.275 2.2737,1.745 2.65,1.0975 2.8425,0.37375 2.8425,-0.37375 2.65,-1.0975 2.275,-1.745 1.745,-2.275 1.0975,-2.65 0.375,-2.8425 0,-71.575 -0.375,-2.8425 -1.0975,-2.64875 -1.745,-2.27625 -2.275,-1.745 -2.65,-1.0975 -2.8425,-0.37375 -2.8425,0.37375 -2.65,1.0975 -2.2737,1.745 -1.7463,2.27625 -1.0975,2.64875 -0.3738,2.8425 -41.8112,0 0,-140.66875 41.8112,0 0.3738,2.84375 1.0975,2.64875 1.7463,2.275 2.2737,1.745 2.65,1.0975 2.8425,0.375 2.8425,-0.375 2.65,-1.0975 2.275,-1.745 1.745,-2.275 1.0975,-2.64875 0.375,-2.84375 0,-71.3975 155.905,0 0,71.3975 0.375,2.8425 1.0963,2.64875 1.7462,2.275 2.275,1.74625 2.6488,1.0975 2.8425,0.37375 2.8437,-0.37375 2.6488,-1.0975 2.275,-1.74625 1.745,-2.275 1.0975,-2.64875 0.375,-2.8425 41.8112,0 0,140.66875 -41.8125,0.12 -0.375,-2.84375 -1.0962,-2.64875 -1.7463,-2.275 -2.275,-1.745 -2.6487,-1.0975 -2.8425,-0.375 -2.8438,0.375 -2.6487,1.0975 -2.275,1.745 -1.745,2.275 -1.0975,2.64875 -0.375,2.84375 0,71.575 0.375,2.8425 1.0975,2.64875 1.745,2.275 2.275,1.74625 2.6487,1.09625 2.8438,0.375 2.8425,-0.375 2.6487,-1.09625 2.275,-1.74625 1.7463,-2.275 1.0962,-2.64875 0.375,-2.8425 41.8125,-0.12 0,467.53875 -49.43,0 -0.3737,-2.8425 -1.0975,-2.6487 -1.745,-2.275 -2.275,-1.7463 -2.65,-1.0962 -2.8425,-0.375 -2.8438,0.375 -2.6487,1.0962 -2.275,1.7463 -1.745,2.275 -1.0975,2.6487 -0.3738,2.8425 0,62.0087 -140.67,0 0,-62.0087 -0.3737,-2.8425 -1.0975,-2.6487 -1.7463,-2.275 -2.275,-1.7463 -2.6487,-1.0962 -2.8425,-0.375 -2.8438,0.375 -2.6487,1.0962 -2.2751,1.7463 -1.745,2.275 -1.0987,2.6487 -0.3738,2.8425 z"
     style="fill:#ff0000;fill-opacity:1;fill-rule:nonzero;stroke:none"
     id="path4222" /><path
     inkscape:connector-curvature="0"
     d="m 2935.5575,491.16625 -71.22,0 0,-283.465 71.22,0 0,63.95625 0.375,2.84375 1.0975,2.64875 1.745,2.275 2.275,1.74625 2.6488,1.09625 2.8437,0.375 2.8425,-0.375 2.6488,-1.09625 2.275,-1.74625 1.7462,-2.275 1.0975,-2.64875 0.3738,-2.84375 97.0862,0 0.375,2.84375 1.0975,2.64875 1.745,2.275 2.275,1.74625 2.65,1.09625 2.8425,0.375 2.8425,-0.375 2.65,-1.09625 2.2738,-1.74625 1.7462,-2.275 1.0975,-2.64875 0.3738,-2.84375 0,-63.95625 71.2212,0 0,283.465 -71.2212,0 0,-63.9575 -0.3738,-2.8425 -1.0975,-2.64875 -1.7462,-2.275 -2.2738,-1.74625 -2.65,-1.0975 -2.8425,-0.37375 -2.8425,0.37375 -2.65,1.0975 -2.275,1.74625 -1.745,2.275 -1.0975,2.64875 -0.375,2.8425 -97.0862,0 -0.3738,-2.8425 -1.0975,-2.64875 -1.7462,-2.275 -2.275,-1.74625 -2.6488,-1.0975 -2.8425,-0.37375 -2.8437,0.37375 -2.6488,1.0975 -2.275,1.74625 -1.745,2.275 -1.0975,2.64875 -0.375,2.8425 0,63.9575 z m 79.1788,-174.07625 -8.6663,-1.14 -8.6663,1.14 -8.0762,3.345 -6.935,5.32125 -5.3212,6.935 -3.345,8.07625 -1.1413,8.66625 1.1413,8.66625 3.345,8.07625 5.3212,6.935 6.935,5.32 8.0762,3.345 8.6663,1.14125 8.6663,-1.14125 8.0762,-3.345 6.9337,-5.32 5.3213,-6.935 3.345,-8.07625 1.1412,-8.66625 -1.1412,-8.66625 -3.345,-8.07625 -5.3213,-6.935 -6.9337,-5.32125 -8.0762,-3.345 z"
     style="fill:#ff0000;fill-opacity:1;fill-rule:nonzero;stroke:none"
     id="path4224" /><path
     inkscape:connector-curvature="0"
     d="m 2243.5588,1659.4138 -2.8438,-0.3738 -70.8662,0 0,-248.3862 283.4649,0 0,248.3862 -70.8662,0 -2.8425,0.3738 -2.65,1.0974 -2.2737,1.7463 -1.7463,2.275 -1.0975,2.6487 -0.3737,2.8425 0.3737,2.8438 1.0975,2.6487 1.7463,2.275 2.2737,1.745 2.65,1.0975 2.8425,0.375 7.0863,0 0,97.0863 -7.0863,0 -2.8425,0.3737 -2.65,1.0975 -2.2737,1.7463 -1.7463,2.275 -1.0975,2.6487 -0.3737,2.8425 0.3737,2.8438 1.0975,2.6487 1.7463,2.275 2.2737,1.7463 2.65,1.0962 2.8425,0.375 70.8662,0 0,248.385 -283.4649,0 0,-248.385 70.8662,0 2.8438,-0.375 2.6487,-1.0962 2.275,-1.7463 1.745,-2.275 1.0975,-2.6487 0.375,-2.8438 -0.375,-2.8425 -1.0975,-2.6487 -1.745,-2.275 -2.275,-1.7463 -2.6487,-1.0975 -2.8438,-0.3737 -7.0863,0 0,-97.0863 7.0863,0 2.8438,-0.375 2.6487,-1.0975 2.275,-1.745 1.745,-2.275 1.0975,-2.6487 0.375,-2.8438 -0.375,-2.8425 -1.0975,-2.6487 -1.745,-2.275 -2.275,-1.7463 -2.6487,-1.0974 z m 131.3725,-185.4101 -1.6888,2.2013 -1.0625,2.5637 -0.3625,2.7513 0.3625,2.7512 1.0625,2.5638 1.6888,2.2012 2.2012,1.6901 2.5638,1.0612 2.7512,0.3625 2.7513,-0.3625 2.5637,-1.0612 2.2012,-1.6901 1.6901,-2.2012 1.0612,-2.5638 0.3625,-2.7512 -0.3625,-2.7513 -1.0612,-2.5637 -1.6901,-2.2013 -2.2012,-1.6887 -2.5637,-1.0625 -2.7513,-0.3625 -2.7512,0.3625 -2.5638,1.0625 -2.2012,1.6887 z m 7.5162,514.2088 2.7513,-0.3612 2.5637,-1.0625 2.2012,-1.6888 1.6901,-2.2013 1.0612,-2.5637 0.3625,-2.7513 -0.3625,-2.7512 -1.0612,-2.5638 -1.6901,-2.2025 -2.2012,-1.6887 -2.5637,-1.0625 -2.7513,-0.3612 -2.7512,0.3612 -2.5638,1.0625 -2.2012,1.6887 -1.6888,2.2025 -1.0625,2.5638 -0.3625,2.7512 0.3625,2.7513 1.0625,2.5637 1.6888,2.2013 2.2012,1.6888 2.5638,1.0625 2.7512,0.3612 z m -147.0475,-19.835 -2.2012,1.6887 -1.6888,2.2025 -1.0625,2.5638 -0.3625,2.7512 0.3625,2.7513 1.0625,2.5637 1.6888,2.2013 2.2012,1.6888 2.5637,1.0625 2.7513,0.3612 2.7513,-0.3612 2.5637,-1.0625 2.2012,-1.6888 1.69,-2.2013 1.0613,-2.5637 0.3625,-2.7513 -0.3625,-2.7512 -1.0613,-2.5638 -1.69,-2.2025 -2.2012,-1.6887 -2.5637,-1.0625 -2.7513,-0.3612 -2.7513,0.3612 -2.5637,1.0625 z m 15.5825,-489.6088 -1.0613,-2.5637 -1.69,-2.2013 -2.2012,-1.6887 -2.5637,-1.0625 -2.7513,-0.3625 -2.7513,0.3625 -2.5637,1.0625 -2.2012,1.6887 -1.6888,2.2013 -1.0625,2.5637 -0.3625,2.7513 0.3625,2.7512 1.0625,2.5638 1.6888,2.2012 2.2012,1.6901 2.5637,1.0612 2.7513,0.3625 2.7513,-0.3625 2.5637,-1.0612 2.2012,-1.6901 1.69,-2.2012 1.0613,-2.5638 0.3625,-2.7512 -0.3625,-2.7513 z"
     style="fill:#ff0000;fill-opacity:1;fill-rule:nonzero;stroke:none"
     id="path4226" /><path
     inkscape:connector-curvature="0"
     d="m 1872.0338,1306.1263 -49.4288,0 0,-467.5388 41.8113,0 0.3737,2.8425 1.0975,2.64875 1.7463,2.275 2.2749,1.74625 2.6488,1.0975 2.8425,0.37375 2.8437,-0.37375 2.6488,-1.0975 2.275,-1.74625 1.745,-2.275 1.0975,-2.64875 0.375,-2.8425 0,-71.575 -0.375,-2.8425 -1.0975,-2.65 -1.745,-2.275 -2.275,-1.745 -2.6488,-1.0975 -2.8437,-0.375 -2.8425,0.375 -2.6488,1.0975 -2.2749,1.745 -1.7463,2.275 -1.0975,2.65 -0.3737,2.8425 -41.8113,0 0,-140.67 41.8113,0 0.3737,2.8425 1.0975,2.65 1.7463,2.275 2.2749,1.745 2.6488,1.0975 2.8425,0.375 2.8437,-0.375 2.6488,-1.0975 2.275,-1.745 1.745,-2.275 1.0975,-2.65 0.375,-2.8425 0,-71.3975 155.905,0 0,71.3975 0.375,2.84375 1.0962,2.64875 1.7463,2.275 2.275,1.74625 2.6487,1.09625 2.8438,0.375 2.8425,-0.375 2.6487,-1.09625 2.275,-1.74625 1.7463,-2.275 1.0975,-2.64875 0.3737,-2.84375 41.8113,0 0,140.67 -41.8125,0.11875 -0.3738,-2.8425 -1.0975,-2.64875 -1.7462,-2.275 -2.275,-1.74625 -2.6488,-1.0975 -2.8425,-0.37375 -2.8437,0.37375 -2.6488,1.0975 -2.275,1.74625 -1.745,2.275 -1.0975,2.64875 -0.375,2.8425 0,71.575 0.375,2.84375 1.0975,2.64875 1.745,2.275 2.275,1.745 2.6488,1.0975 2.8437,0.375 2.8425,-0.375 2.6488,-1.0975 2.275,-1.745 1.7462,-2.275 1.0975,-2.64875 0.3738,-2.84375 41.8125,-0.11875 0,467.5388 -49.43,0 -0.3738,-2.8425 -1.0975,-2.6488 -1.745,-2.275 -2.275,-1.7462 -2.65,-1.0975 -2.8425,-0.3738 -2.8425,0.3738 -2.65,1.0975 -2.2737,1.7462 -1.7463,2.275 -1.0975,2.6488 -0.3737,2.8425 0,62.0087 -140.67,0 0,-62.0087 -0.3738,-2.8425 -1.0975,-2.6488 -1.7462,-2.275 -2.2738,-1.7462 -2.6499,-1.0975 -2.8425,-0.3738 -2.8425,0.3738 -2.65,1.0975 -2.275,1.7462 -1.745,2.275 -1.0975,2.6488 -0.375,2.8425 z"
     style="fill:#ff0000;fill-opacity:1;fill-rule:nonzero;stroke:none"
     id="path4228" /><path
     inkscape:connector-curvature="0"
     d="m 1896.3137,1659.4138 -2.8424,-0.3738 -70.8663,0 0,-248.3862 283.465,0 0,248.3862 -70.8662,0 -2.8425,0.3738 -2.65,1.0974 -2.275,1.7463 -1.745,2.275 -1.0975,2.6487 -0.375,2.8425 0.375,2.8438 1.0975,2.6487 1.745,2.275 2.275,1.745 2.65,1.0975 2.8425,0.375 7.0862,0 0,97.0863 -7.0862,0 -2.8425,0.3737 -2.65,1.0975 -2.275,1.7463 -1.745,2.275 -1.0975,2.6487 -0.375,2.8425 0.375,2.8438 1.0975,2.6487 1.745,2.275 2.275,1.7463 2.65,1.0962 2.8425,0.375 70.8662,0 0,248.385 -283.465,0 0,-248.385 70.8663,0 2.8424,-0.375 2.65,-1.0962 2.275,-1.7463 1.745,-2.275 1.0975,-2.6487 0.3738,-2.8438 -0.3738,-2.8425 -1.0975,-2.6487 -1.745,-2.275 -2.275,-1.7463 -2.65,-1.0975 -2.8424,-0.3737 -7.0863,0 0,-97.0863 7.0863,0 2.8424,-0.375 2.65,-1.0975 2.275,-1.745 1.745,-2.275 1.0975,-2.6487 0.3738,-2.8438 -0.3738,-2.8425 -1.0975,-2.6487 -1.745,-2.275 -2.275,-1.7463 -2.65,-1.0974 z m 131.3738,-185.4101 -1.69,2.2013 -1.0613,2.5637 -0.3625,2.7513 0.3625,2.7512 1.0613,2.5638 1.69,2.2012 2.2012,1.6901 2.5638,1.0612 2.7512,0.3625 2.7513,-0.3625 2.5637,-1.0612 2.2013,-1.6901 1.69,-2.2012 1.0612,-2.5638 0.3625,-2.7512 -0.3625,-2.7513 -1.0612,-2.5637 -1.69,-2.2013 -2.2013,-1.6887 -2.5637,-1.0625 -2.7513,-0.3625 -2.7512,0.3625 -2.5638,1.0625 -2.2012,1.6887 z m 7.5162,514.2088 2.7513,-0.3612 2.5637,-1.0625 2.2013,-1.6888 1.69,-2.2013 1.0612,-2.5637 0.3625,-2.7513 -0.3625,-2.7512 -1.0612,-2.5638 -1.69,-2.2025 -2.2013,-1.6887 -2.5637,-1.0625 -2.7513,-0.3612 -2.7512,0.3612 -2.5638,1.0625 -2.2012,1.6887 -1.69,2.2025 -1.0613,2.5638 -0.3625,2.7512 0.3625,2.7513 1.0613,2.5637 1.69,2.2013 2.2012,1.6888 2.5638,1.0625 2.7512,0.3612 z m -147.0475,-19.835 -2.2012,1.6887 -1.69,2.2025 -1.0612,2.5638 -0.3625,2.7512 0.3625,2.7513 1.0612,2.5637 1.69,2.2013 2.2012,1.6888 2.5638,1.0625 2.7512,0.3612 2.7513,-0.3612 2.5637,-1.0625 2.2013,-1.6888 1.69,-2.2013 1.0612,-2.5637 0.3625,-2.7513 -0.3625,-2.7512 -1.0612,-2.5638 -1.69,-2.2025 -2.2013,-1.6887 -2.5637,-1.0625 -2.7513,-0.3612 -2.7512,0.3612 -2.5638,1.0625 z m 15.5825,-489.6088 -1.0612,-2.5637 -1.69,-2.2013 -2.2013,-1.6887 -2.5637,-1.0625 -2.7513,-0.3625 -2.7512,0.3625 -2.5638,1.0625 -2.2012,1.6887 -1.69,2.2013 -1.0612,2.5637 -0.3625,2.7513 0.3625,2.7512 1.0612,2.5638 1.69,2.2012 2.2012,1.6901 2.5638,1.0612 2.7512,0.3625 2.7513,-0.3625 2.5637,-1.0612 2.2013,-1.6901 1.69,-2.2012 1.0612,-2.5638 0.3625,-2.7512 -0.3625,-2.7513 z"
     style="fill:#ff0000;fill-opacity:1;fill-rule:nonzero;stroke:none"
     id="path4230" /><path
     inkscape:connector-curvature="0"
     d="m 2219.2775,1307.8987 -49.4287,0 0,-467.5387 41.8112,0 0.3738,2.8425 1.0975,2.64875 1.7462,2.275 2.2737,1.74625 2.6501,1.0975 2.8424,0.37375 2.8425,-0.37375 2.65,-1.0975 2.275,-1.74625 1.745,-2.275 1.0975,-2.64875 0.375,-2.8425 0,-71.575 -0.375,-2.84375 -1.0975,-2.64875 -1.745,-2.275 -2.275,-1.745 -2.65,-1.0975 -2.8425,-0.375 -2.8424,0.375 -2.6501,1.0975 -2.2737,1.745 -1.7462,2.275 -1.0975,2.64875 -0.3738,2.84375 -41.8112,0 0,-140.67 41.8112,0 0.3738,2.8425 1.0975,2.65 1.7462,2.275 2.2737,1.745 2.6501,1.0975 2.8424,0.37375 2.8425,-0.37375 2.65,-1.0975 2.275,-1.745 1.745,-2.275 1.0975,-2.65 0.375,-2.8425 0,-71.3975 155.905,0 0,71.3975 0.3738,2.84375 1.0975,2.64875 1.7462,2.275 2.275,1.745 2.6488,1.0975 2.8425,0.375 2.8437,-0.375 2.6488,-1.0975 2.275,-1.745 1.745,-2.275 1.0975,-2.64875 0.375,-2.84375 41.8112,0 0,140.67 -41.8125,0.11875 -0.3737,-2.8425 -1.0975,-2.64875 -1.7463,-2.275 -2.275,-1.74625 -2.6487,-1.0975 -2.8425,-0.37375 -2.8438,0.37375 -2.6487,1.0975 -2.275,1.74625 -1.7463,2.275 -1.0962,2.64875 -0.375,2.8425 0,71.575 0.375,2.8425 1.0962,2.65 1.7463,2.275 2.275,1.745 2.6487,1.0975 2.8438,0.37375 2.8425,-0.37375 2.6487,-1.0975 2.275,-1.745 1.7463,-2.275 1.0975,-2.65 0.3737,-2.8425 41.8125,-0.11875 0,467.5387 -49.43,0 -0.3737,-2.8425 -1.0975,-2.6499 -1.745,-2.275 -2.275,-1.745 -2.65,-1.0975 -2.8425,-0.3738 -2.8425,0.3738 -2.65,1.0975 -2.275,1.745 -1.745,2.275 -1.0975,2.6499 -0.3738,2.8425 0,62.0075 -140.67,0 0,-62.0075 -0.3737,-2.8425 -1.0975,-2.6499 -1.7463,-2.275 -2.275,-1.745 -2.6487,-1.0975 -2.8425,-0.3738 -2.8438,0.3738 -2.6487,1.0975 -2.275,1.745 -1.745,2.275 -1.0975,2.6499 -0.375,2.8425 z"
     style="fill:#ff0000;fill-opacity:1;fill-rule:nonzero;stroke:none"
     id="path4232" /><path
     style="fill:#ff0000;fill-opacity:1;fill-rule:nonzero;stroke:none"
     d="M 2517.0938 207.70117 L 2517.0938 491.16602 L 2588.3145 491.16602 L 2588.3145 427.38672 L 2588.6875 424.54297 L 2589.7852 421.89453 L 2591.5312 419.61914 L 2593.8066 417.87305 L 2596.4551 416.77539 L 2599.2969 416.40234 L 2602.1406 416.77539 L 2604.7891 417.87305 L 2607.0645 419.61914 L 2608.8105 421.89453 L 2609.9082 424.54297 L 2610.2832 427.38672 L 2707.3691 427.38672 L 2707.7441 424.54297 L 2708.8418 421.89453 L 2710.5859 419.61914 L 2712.8613 417.87305 L 2715.5098 416.77539 L 2718.3535 416.40234 L 2721.1973 416.77539 L 2723.8457 417.87305 L 2726.1191 419.61914 L 2727.8672 421.89453 L 2728.9629 424.54297 L 2729.3379 427.38672 L 2729.3379 491.16602 L 2800.5566 491.16602 L 2800.5566 207.70117 L 2729.3379 207.70117 L 2729.3379 271.48047 L 2728.9629 274.32422 L 2727.8672 276.97266 L 2726.1191 279.24805 L 2723.8457 280.99414 L 2721.1973 282.0918 L 2718.3535 282.46484 L 2715.5098 282.0918 L 2712.8613 280.99414 L 2710.5859 279.24805 L 2708.8418 276.97266 L 2707.7441 274.32422 L 2707.3691 271.48047 L 2610.2832 271.48047 L 2609.9082 274.32422 L 2608.8105 276.97266 L 2607.0645 279.24805 L 2604.7891 280.99414 L 2602.1406 282.0918 L 2599.2969 282.46484 L 2596.4551 282.0918 L 2593.8066 280.99414 L 2591.5312 279.24805 L 2589.7852 276.97266 L 2588.6875 274.32422 L 2588.3145 271.48047 L 2588.3145 207.70117 L 2517.0938 207.70117 z M 2658.8262 300.18164 L 2671.5742 301.85938 L 2683.4531 306.78125 L 2693.6523 314.60742 L 2701.4785 324.80664 L 2706.4004 336.68555 L 2708.0781 349.43359 L 2706.4004 362.17969 L 2701.4785 374.05859 L 2693.6523 384.25977 L 2683.4531 392.08789 L 2671.5742 397.00586 L 2658.8262 398.68555 L 2646.0781 397.00586 L 2634.2012 392.08789 L 2624 384.25977 L 2616.1719 374.05859 L 2611.252 362.17969 L 2609.5742 349.43359 L 2611.252 336.68555 L 2616.1719 324.80664 L 2624 314.60742 L 2634.2012 306.78125 L 2646.0781 301.85938 L 2658.8262 300.18164 z "
     id="path4234" /><path
     style="fill:#ff0000;fill-opacity:1;fill-rule:nonzero;stroke:none"
     d="M 3211.582 207.70117 L 3211.582 491.16602 L 3282.8027 491.16602 L 3282.8027 427.38672 L 3283.1758 424.54297 L 3284.2734 421.89453 L 3286.0195 419.61914 L 3288.293 417.87305 L 3290.9434 416.77539 L 3293.7871 416.40234 L 3296.6289 416.77539 L 3299.2793 417.87305 L 3301.5527 419.61914 L 3303.2988 421.89453 L 3304.3965 424.54297 L 3304.7695 427.38672 L 3401.8574 427.38672 L 3402.2305 424.54297 L 3403.3281 421.89453 L 3405.0742 419.61914 L 3407.3496 417.87305 L 3409.998 416.77539 L 3412.8418 416.40234 L 3415.6855 416.77539 L 3418.334 417.87305 L 3420.6094 419.61914 L 3422.3535 421.89453 L 3423.4512 424.54297 L 3423.8262 427.38672 L 3423.8262 491.16602 L 3495.0469 491.16602 L 3495.0469 207.70117 L 3423.8262 207.70117 L 3423.8262 271.48047 L 3423.4512 274.32422 L 3422.3535 276.97266 L 3420.6094 279.24805 L 3418.334 280.99414 L 3415.6855 282.0918 L 3412.8418 282.46484 L 3409.998 282.0918 L 3407.3496 280.99414 L 3405.0742 279.24805 L 3403.3281 276.97266 L 3402.2305 274.32422 L 3401.8574 271.48047 L 3304.7695 271.48047 L 3304.3965 274.32422 L 3303.2988 276.97266 L 3301.5527 279.24805 L 3299.2793 280.99414 L 3296.6289 282.0918 L 3293.7871 282.46484 L 3290.9434 282.0918 L 3288.293 280.99414 L 3286.0195 279.24805 L 3284.2734 276.97266 L 3283.1758 274.32422 L 3282.8027 271.48047 L 3282.8027 207.70117 L 3211.582 207.70117 z M 3353.3145 300.18164 L 3366.0625 301.85938 L 3377.9395 306.78125 L 3388.1406 314.60742 L 3395.9668 324.80664 L 3400.8887 336.68555 L 3402.5664 349.43359 L 3400.8887 362.17969 L 3395.9668 374.05859 L 3388.1406 384.25977 L 3377.9395 392.08789 L 3366.0625 397.00586 L 3353.3145 398.68555 L 3340.5664 397.00586 L 3328.6875 392.08789 L 3318.4883 384.25977 L 3310.6602 374.05859 L 3305.7402 362.17969 L 3304.0625 349.43359 L 3305.7402 336.68555 L 3310.6602 324.80664 L 3318.4883 314.60742 L 3328.6875 306.78125 L 3340.5664 301.85938 L 3353.3145 300.18164 z "
     id="path4236" /><path
     inkscape:connector-curvature="0"
     d="m 3423.8175,2492.3425 0.3625,-2.7512 0,-63.7801 70.8663,0 0,354.3313 -70.8663,0 0,-125.7875 -0.3625,-2.7512 -1.0612,-2.5638 -1.6901,-2.2013 -2.2012,-1.69 -2.5637,-1.0612 -2.7513,-0.3625 -2.7512,0.3625 -2.5638,1.0612 -2.2012,1.69 -1.69,2.2013 -1.0613,2.5638 -0.3625,2.7512 -99.2125,0 -0.3625,-2.7512 -1.0612,-2.5638 -1.69,-2.2013 -2.2013,-1.69 -2.5637,-1.0612 -2.7513,-0.3625 -2.7512,0.3625 -2.5638,1.0612 -2.2012,1.69 -1.69,2.2013 -1.0613,2.5638 -0.3625,2.7512 0,125.7875 -70.8662,0 0,-354.3313 70.8662,0 0,63.7801 0.3625,2.7512 1.0613,2.5638 1.69,2.2012 2.2012,1.6888 2.5638,1.0625 2.7512,0.3625 2.7513,-0.3625 2.5637,-1.0625 2.2013,-1.6888 1.69,-2.2012 1.0612,-2.5638 0.3625,-2.7512 99.2125,0 0.3625,2.7512 1.0613,2.5638 1.69,2.2012 2.2012,1.6888 2.5638,1.0625 2.7512,0.3625 2.7513,-0.3625 2.5637,-1.0625 2.2012,-1.6888 1.6901,-2.2012 1.0612,-2.5638 z"
     style="fill:#ff0000;fill-opacity:1;fill-rule:nonzero;stroke:none"
     id="path4238" /><path
     inkscape:connector-curvature="0"
     d="m 3211.5812,2280.3588 0,-141.3776 41.9888,0 0.3737,2.8426 1.0975,2.6487 1.7451,2.275 2.2762,1.7463 2.6488,1.0975 2.8425,0.3737 2.8424,-0.3737 2.65,-1.0975 2.2751,-1.7463 1.745,-2.275 1.0975,-2.6487 0.375,-2.8426 0,-71.0437 155.5512,0 0,71.0437 0.3738,2.8426 1.0975,2.6487 1.745,2.275 2.275,1.7463 2.65,1.0975 2.8425,0.3737 2.8425,-0.3737 2.6487,-1.0975 2.2763,-1.7463 1.745,-2.275 1.0975,-2.6487 0.3737,-2.8426 41.9888,0 0,141.3776 -41.9888,0 -0.3737,-2.8425 -1.0975,-2.65 -1.745,-2.275 -2.2763,-1.745 -2.6487,-1.0976 -2.8425,-0.3737 -2.8425,0.3737 -2.65,1.0976 -2.275,1.745 -1.745,2.275 -1.0975,2.65 -0.3738,2.8425 0,71.0437 -155.5512,0 0,-71.0437 -0.375,-2.8425 -1.0975,-2.65 -1.745,-2.275 -2.2751,-1.745 -2.65,-1.0976 -2.8424,-0.3737 -2.8425,0.3737 -2.6488,1.0976 -2.2762,1.745 -1.7451,2.275 -1.0975,2.65 -0.3737,2.8425 -41.9888,0 z m 150.3988,-103.0325 -8.6663,-1.1413 -8.6662,1.1413 -8.0762,3.345 -6.935,5.3212 -5.3213,6.935 -3.345,8.0762 -1.14,8.6663 1.14,8.6662 3.345,8.0763 5.3213,6.9338 6.935,5.3212 8.0762,3.345 8.6662,1.1413 8.6663,-1.1413 8.0762,-3.345 6.935,-5.3212 5.3213,-6.9338 3.345,-8.0763 1.14,-8.6662 -1.14,-8.6663 -3.345,-8.0762 -5.3213,-6.935 -6.935,-5.3212 -8.0762,-3.345 z"
     style="fill:#ff0000;fill-opacity:1;fill-rule:nonzero;stroke:none"
     id="path4240" /><path
     inkscape:connector-curvature="0"
     d="m 3558.8263,420.1225 0,-141.3775 41.9875,0 0.375,2.8425 1.0962,2.64875 1.7463,2.275 2.275,1.74625 2.6487,1.0975 2.8425,0.37375 2.8438,-0.37375 2.6487,-1.0975 2.275,-1.74625 1.7463,-2.275 1.0962,-2.64875 0.375,-2.8425 0,-71.04375 155.5513,0 0,71.04375 0.3737,2.8425 1.0975,2.64875 1.7463,2.275 2.275,1.74625 2.6487,1.0975 2.8425,0.37375 2.8438,-0.37375 2.6487,-1.0975 2.275,-1.74625 1.745,-2.275 1.0975,-2.64875 0.375,-2.8425 41.9875,0 0,141.3775 -41.9875,0 -0.375,-2.8425 -1.0975,-2.65 -1.745,-2.275 -2.275,-1.745 -2.6487,-1.0975 -2.8438,-0.37375 -2.8425,0.37375 -2.6487,1.0975 -2.275,1.745 -1.7463,2.275 -1.0975,2.65 -0.3737,2.8425 0,71.04375 -155.5513,0 0,-71.04375 -0.375,-2.8425 -1.0962,-2.65 -1.7463,-2.275 -2.275,-1.745 -2.6487,-1.0975 -2.8438,-0.37375 -2.8425,0.37375 -2.6487,1.0975 -2.275,1.745 -1.7463,2.275 -1.0962,2.65 -0.375,2.8425 -41.9875,0 z m 150.3975,-103.0325 -8.6663,-1.14 -8.6662,1.14 -8.0763,3.345 -6.9337,5.32125 -5.3213,6.935 -3.345,8.07625 -1.1412,8.66625 1.1412,8.66625 3.345,8.07625 5.3213,6.935 6.9337,5.32 8.0763,3.345 8.6662,1.14125 8.6663,-1.14125 8.0762,-3.345 6.935,-5.32 5.3213,-6.935 3.3449,-8.07625 1.1413,-8.66625 -1.1413,-8.66625 -3.3449,-8.07625 -5.3213,-6.935 -6.935,-5.32125 -8.0762,-3.345 z"
     style="fill:#ff0000;fill-opacity:1;fill-rule:nonzero;stroke:none"
     id="path4242" /><path
     inkscape:connector-curvature="0"
     d="m 3771.0625,2428.5625 0.3613,-2.7513 0,-63.7787 70.8662,0 0,354.33 -70.8662,0 0,-125.7875 -0.3613,-2.7512 -1.0625,-2.5638 -1.69,-2.2012 -2.2012,-1.6888 -2.5638,-1.0625 -2.7512,-0.3625 -2.7513,0.3625 -2.5637,1.0625 -2.2013,1.6888 -1.6887,2.2012 -1.0625,2.5638 -0.3625,2.7512 -99.2125,0 -0.3625,-2.7512 -1.0613,-2.5638 -1.6887,-2.2012 -2.2025,-1.6888 -2.5638,-1.0625 -2.7512,-0.3625 -2.7513,0.3625 -2.5637,1.0625 -2.2013,1.6888 -1.6887,2.2012 -1.0625,2.5638 -0.3625,2.7512 0,125.7875 -70.865,0 0,-354.33 70.865,0 0,63.7787 0.3625,2.7513 1.0625,2.5638 1.6887,2.2012 2.2013,1.69 2.5637,1.0613 2.7513,0.3624 2.7512,-0.3624 2.5638,-1.0613 2.2025,-1.69 1.6887,-2.2012 1.0613,-2.5638 0.3625,-2.7513 99.2125,0 0.3625,2.7513 1.0625,2.5638 1.6887,2.2012 2.2013,1.69 2.5637,1.0613 2.7513,0.3624 2.7512,-0.3624 2.5638,-1.0613 2.2012,-1.69 1.69,-2.2012 1.0625,-2.5638 z"
     style="fill:#ff0000;fill-opacity:1;fill-rule:nonzero;stroke:none"
     id="path4244" /><path
     inkscape:connector-curvature="0"
     d="m 2736.7787,1789.245 0,71.9288 0.3613,2.7512 1.0625,2.5637 1.69,2.2013 2.2012,1.69 2.5638,1.0612 2.7512,0.3625 2.75,-0.3625 2.5638,-1.0612 2.2025,-1.69 1.6887,-2.2013 1.0625,-2.5637 0.3625,-2.7512 0,-0.3538 42.5188,0 0,177.165 -283.4638,0 0,-177.165 42.5188,0 0,0.3538 0.3625,2.7512 1.0625,2.5637 1.6887,2.2013 2.2013,1.69 2.5637,1.0612 2.7513,0.3625 2.7512,-0.3625 2.5638,-1.0612 2.2025,-1.69 1.6887,-2.2013 1.0613,-2.5637 0.3625,-2.7512 0,-71.9288 -0.3625,-2.7513 -1.0613,-2.5637 -1.6887,-2.2012 -2.2025,-1.69 -2.5638,-1.0613 -2.7512,-0.3625 -2.7513,0.3625 -2.5637,1.0613 -2.2013,1.69 -1.6887,2.2012 -1.0625,2.5637 -0.3625,2.7513 0,0.3537 -42.5188,0 0,-141.3775 42.5188,0 0,0.3538 0.3625,2.7512 1.0625,2.5638 1.6887,2.2025 2.2013,1.6887 2.5637,1.0613 2.7513,0.3625 2.7512,-0.3625 2.5638,-1.0613 2.2025,-1.6887 1.6887,-2.2025 1.0613,-2.5638 0.3625,-2.7512 0,-71.9288 -0.3625,-2.7512 -1.0613,-2.5638 -1.6887,-2.2012 -2.2025,-1.69 -2.5638,-1.0613 -2.7512,-0.3624 -2.7513,0.3624 -2.5637,1.0613 -2.2013,1.69 -1.6887,2.2012 -1.0625,2.5638 -0.3625,2.7512 0,0.3538 -42.5188,0 0,-177.165 283.4638,0 0,177.165 -42.5188,0 0,-0.3538 -0.3625,-2.7512 -1.0625,-2.5638 -1.6887,-2.2012 -2.2025,-1.69 -2.5638,-1.0613 -2.75,-0.3624 -2.7512,0.3624 -2.5638,1.0613 -2.2012,1.69 -1.69,2.2012 -1.0625,2.5638 -0.3613,2.7512 0,71.9288 0.3613,2.7512 1.0625,2.5638 1.69,2.2025 2.2012,1.6887 2.5638,1.0613 2.7512,0.3625 2.75,-0.3625 2.5638,-1.0613 2.2025,-1.6887 1.6887,-2.2025 1.0625,-2.5638 0.3625,-2.7512 0,-0.3538 42.5188,0 0,141.3775 -42.5188,0 0,-0.3537 -0.3625,-2.7513 -1.0625,-2.5637 -1.6887,-2.2012 -2.2025,-1.69 -2.5638,-1.0613 -2.75,-0.3625 -2.7512,0.3625 -2.5638,1.0613 -2.2012,1.69 -1.69,2.2012 -1.0625,2.5637 -0.3613,2.7513 z m 2.1188,183.0238 -1.6888,-2.2025 -2.2025,-1.6888 -2.5637,-1.0625 -2.7513,-0.3612 -2.7512,0.3612 -2.5638,1.0625 -2.2012,1.6888 -1.6888,2.2025 -1.0624,2.5637 -0.3613,2.7513 0.3613,2.7512 1.0624,2.5638 1.6888,2.2012 2.2012,1.6888 2.5638,1.0625 2.7512,0.3612 2.7513,-0.3612 2.5637,-1.0625 2.2025,-1.6888 1.6888,-2.2012 1.0625,-2.5638 0.3613,-2.7512 -0.3613,-2.7513 -1.0625,-2.5637 z m -3.8912,-517.6713 -2.5638,-1.0613 -2.7512,-0.3624 -2.7513,0.3624 -2.5637,1.0613 -2.2013,1.69 -1.6887,2.2013 -1.0625,2.5637 -0.3613,2.7512 0.3613,2.7513 1.0625,2.5637 1.6887,2.2013 2.2013,1.6888 2.5637,1.0624 2.7513,0.3625 2.7512,-0.3625 2.5638,-1.0624 2.2025,-1.6888 1.6887,-2.2013 1.0625,-2.5637 0.3613,-2.7513 -0.3613,-2.7512 -1.0625,-2.5637 -1.6887,-2.2013 -2.2025,-1.69 z m -147.0463,533.615 2.7512,-0.3612 2.5638,-1.0625 2.2012,-1.6888 1.6888,-2.2013 1.0625,-2.5637 0.3625,-2.7513 -0.3625,-2.7512 -1.0625,-2.5638 -1.6888,-2.2025 -2.2012,-1.6887 -2.5638,-1.0625 -2.7512,-0.3612 -2.7513,0.3612 -2.5637,1.0625 -2.2025,1.6887 -1.6888,2.2025 -1.0625,2.5638 -0.3612,2.7512 0.3612,2.7513 1.0625,2.5637 1.6888,2.2013 2.2025,1.6888 2.5637,1.0625 2.7513,0.3612 z m -2.7513,-534.6763 -2.5637,1.0613 -2.2025,1.69 -1.6888,2.2013 -1.0625,2.5637 -0.3612,2.7512 0.3612,2.7513 1.0625,2.5637 1.6888,2.2013 2.2025,1.6888 2.5637,1.0624 2.7513,0.3625 2.7512,-0.3625 2.5638,-1.0624 2.2012,-1.6888 1.6888,-2.2013 1.0625,-2.5637 0.3625,-2.7513 -0.3625,-2.7512 -1.0625,-2.5637 -1.6888,-2.2013 -2.2012,-1.69 -2.5638,-1.0613 -2.7512,-0.3624 -2.7513,0.3624 z m 21.9188,248.6188 1.9875,0.8225 0,31.865 -1.9875,0.8225 -2.3487,1.8025 -1.8013,2.3475 -1.1325,2.735 -0.3863,2.935 0.3863,2.935 1.1325,2.7337 1.8013,2.3488 2.3487,1.8012 2.735,1.1338 2.9338,0.3862 2.9349,-0.3862 2.7351,-1.1338 1.7062,-1.3087 27.595,15.9325 -0.28,2.1325 0.3862,2.9337 1.1326,2.735 1.8012,2.3488 2.3487,1.8012 2.735,1.1338 2.935,0.3862 2.9338,-0.3862 2.735,-1.1338 2.3488,-1.8012 1.8012,-2.3488 1.1325,-2.735 0.3862,-2.9337 -0.28,-2.1325 27.595,-15.9325 1.7063,1.3087 2.735,1.1338 2.935,0.3862 2.9337,-0.3862 2.735,-1.1338 2.3488,-1.8012 1.8012,-2.3488 1.1338,-2.7337 0.3863,-2.935 -0.3863,-2.935 -1.1338,-2.735 -1.8012,-2.3475 -2.3488,-1.8025 -1.9862,-0.8225 0,-31.865 1.9862,-0.8225 2.3488,-1.8025 1.8012,-2.3475 1.1338,-2.735 0.3863,-2.935 -0.3863,-2.9338 -1.1338,-2.735 -1.8012,-2.3487 -2.3488,-1.8012 -2.735,-1.1338 -2.9337,-0.3862 -2.935,0.3862 -2.735,1.1338 -1.7063,1.3087 -27.595,-15.9325 0.28,-2.1325 -0.3862,-2.9337 -1.1325,-2.735 -1.8012,-2.3488 -2.3488,-1.8013 -2.735,-1.1324 -2.9338,-0.3875 -2.935,0.3875 -2.735,1.1324 -2.3487,1.8013 -1.8012,2.3488 -1.1326,2.735 -0.3862,2.9337 0.28,2.1325 -27.595,15.9325 -1.7062,-1.3087 -2.7351,-1.1338 -2.9349,-0.3862 -2.9338,0.3862 -2.735,1.1338 -2.3487,1.8012 -1.8013,2.3487 -1.1325,2.735 -0.3863,2.9338 0.3863,2.935 1.1325,2.735 1.8013,2.3475 2.3487,1.8025 z"
     style="fill:#ff0000;fill-opacity:1;fill-rule:nonzero;stroke:none"
     id="path4246" /></svg>